<svg width="362" height="127" xmlns="http://www.w3.org/2000/svg" xmlns:xlink="http://www.w3.org/1999/xlink" overflow="hidden"><defs><clipPath id="clip0"><rect x="255" y="463" width="362" height="127"/></clipPath><clipPath id="clip1"><rect x="366" y="464" width="125" height="125"/></clipPath><clipPath id="clip2"><rect x="366" y="464" width="125" height="125"/></clipPath><clipPath id="clip3"><rect x="366" y="464" width="125" height="125"/></clipPath></defs><g clip-path="url(#clip0)" transform="translate(-255 -463)"><path d="M478 526C478 553.614 455.614 576 428 576 400.386 576 378 553.614 378 526 378 498.386 400.386 476 428 476 455.614 476 478 498.386 478 526Z" fill="#FFFFFF" fill-rule="evenodd"/><g clip-path="url(#clip1)"><g clip-path="url(#clip2)"><g clip-path="url(#clip3)"><path d="M379.021 542.906C379.021 542.906 379.021 542.906 379.021 542.906 379.021 542.906 379.021 542.906 379.021 542.906 383.448 556.188 392.693 566.865 405.193 573.115 417.563 579.365 431.755 580.276 444.906 575.979L444.906 575.979C458.057 571.552 468.865 562.307 474.984 549.938 481.365 537.438 482.276 523.245 477.979 510.094 473.813 497.464 464.438 486.526 452.458 480.276 445.036 476.37 436.833 474.417 428.63 474.417 423.031 474.417 417.563 475.328 412.094 477.151 392.563 483.661 379.021 500.589 376.807 520.641 375.896 527.932 376.677 535.615 379.021 542.906ZM400.375 537.177 394.906 542.646C393.865 543.688 392.302 543.688 391.26 542.646 390.219 541.604 390.219 540.042 391.26 539L396.729 533.531C397.25 533.01 397.901 532.75 398.552 532.75 399.203 532.75 399.854 533.01 400.375 533.531 401.417 534.443 401.417 536.135 400.375 537.177ZM417.302 563.609C416.26 564.651 414.568 564.521 413.656 563.479L408.448 558.01C407.406 556.969 407.536 555.276 408.578 554.365 409.099 553.844 409.75 553.714 410.401 553.714 411.052 553.714 411.833 553.974 412.354 554.495L417.563 559.964C418.344 560.875 418.344 562.568 417.302 563.609ZM428.5 541.083C426.286 541.083 424.073 540.563 421.99 539.521 418.474 537.828 415.87 534.833 414.698 531.057 413.526 527.281 413.786 523.375 415.479 519.859 417.172 516.344 420.167 513.74 423.943 512.568 431.625 509.964 439.828 514.13 442.432 521.813 443.604 525.458 443.344 529.495 441.651 533.01 439.958 536.526 436.964 539.13 433.188 540.302 431.625 540.823 430.063 541.083 428.5 541.083ZM447.25 558.01 441.781 563.479C440.74 564.521 439.177 564.521 438.135 563.479 437.094 562.438 437.094 560.875 438.135 559.833L443.604 554.365C444.125 553.844 444.776 553.583 445.427 553.583 446.078 553.583 446.729 553.844 447.25 554.365 448.292 555.276 448.292 556.969 447.25 558.01ZM465.479 539C466.521 540.042 466.521 541.604 465.479 542.646 464.438 543.688 462.875 543.688 461.833 542.646L456.365 537.177C455.323 536.135 455.323 534.573 456.365 533.531 456.885 533.01 457.536 532.75 458.188 532.75 458.839 532.75 459.49 533.01 460.01 533.531L465.479 539ZM461.443 508.01C462.094 508.01 462.745 508.271 463.266 508.792 464.307 509.833 464.307 511.396 463.266 512.438L457.797 517.906C456.755 518.948 455.193 518.948 454.151 517.906 453.109 516.865 453.109 515.302 454.151 514.26L459.62 508.792C460.01 508.271 460.661 508.01 461.443 508.01ZM386.573 505.536C392.172 494.339 401.807 486.005 413.656 482.099 413.656 482.099 413.656 482.099 413.656 482.099 425.896 477.932 438.786 478.974 449.984 484.833 451.417 485.615 452.719 486.396 454.021 487.177 449.854 487.307 446.599 490.432 446.599 497.724 446.729 504.755 429.932 505.146 429.672 497.724 429.021 482.099 396.208 490.823 397.12 515.953 397.38 524.807 386.703 524.938 386.703 519.859 386.703 515.693 384.88 514.13 383.057 514.26 383.969 511.396 385.141 508.401 386.573 505.536Z" fill="#FF5964"/></g></g></g><path d="M280.852 505.242C282.474 505.242 284.588 505.64 287.195 506.436 287.453 506.513 287.652 506.552 287.792 506.552 287.891 506.552 288.296 506.425 289.006 506.171 289.314 506.057 289.629 506.001 289.952 506.001 291.148 506.001 292.357 506.869 293.577 508.605 294.797 510.341 295.407 511.988 295.407 513.547 295.407 514.521 295.108 515.352 294.509 516.04 293.91 516.728 293.165 517.072 292.273 517.072 291.565 517.072 290.995 516.934 290.563 516.657 290.13 516.38 289.252 515.627 287.929 514.397 286.18 512.764 284.479 511.948 282.828 511.948 282.09 511.948 281.517 512.112 281.108 512.442 280.698 512.772 280.493 513.202 280.493 513.731 280.493 514.835 281.65 515.72 283.962 516.385 286.944 517.264 288.895 517.925 289.815 518.369 293.911 520.361 295.959 523.296 295.959 527.174 295.959 530.587 294.562 533.377 291.768 535.545 288.959 537.722 285.298 538.811 280.783 538.811 278.776 538.811 276.666 538.573 274.453 538.098 272.241 537.623 270.556 536.988 269.399 536.195 268.713 535.779 268.063 534.714 267.448 532.997 266.833 531.281 266.526 529.608 266.526 527.978 266.526 527.123 266.679 526.593 266.986 526.389 267.528 525.512 268.166 525.074 268.902 525.074 269.629 525.074 270.276 525.39 270.843 526.022 271.248 526.446 272.054 527.579 273.262 529.422 273.783 530.21 274.621 530.87 275.776 531.401 276.931 531.932 278.133 532.198 279.381 532.198 280.435 532.198 281.257 532.022 281.845 531.67 282.433 531.319 282.727 530.9 282.727 530.414 282.727 529.955 282.492 529.536 282.022 529.158 281.553 528.779 280.616 528.369 279.211 527.927 277.221 527.31 275.634 526.705 274.449 526.112 273.263 525.519 272.426 524.812 271.936 523.989 268.881 521.675 267.353 519.083 267.353 516.213 267.353 514.787 267.682 513.406 268.339 512.068 268.996 510.729 269.87 509.634 270.961 508.781 273.73 506.422 277.026 505.242 280.852 505.242Z" stroke="#FF5964" stroke-width="2" stroke-linejoin="round" stroke-miterlimit="10" fill="#FFE74C" fill-rule="evenodd"/><text fill="#000000" fill-opacity="0" font-family="Arial,Arial_MSFontService,sans-serif" font-size="33.5687" x="266.526" y="534.615">S</text><path d="M341.485 528.585C340.974 528.585 340.515 528.811 340.107 529.263 339.699 529.715 339.495 530.267 339.495 530.92 339.495 531.557 339.629 532.048 339.898 532.393 340.167 532.737 340.512 532.91 340.933 532.91 341.846 532.91 342.303 532.032 342.303 530.276 342.303 529.527 342.247 529.06 342.136 528.876 342.024 528.692 341.807 528.595 341.485 528.585ZM429.174 519.439C428.485 519.439 427.942 519.713 427.544 520.26 427.151 520.797 426.955 521.34 426.955 521.889 426.955 522.211 427.013 522.42 427.129 522.517 427.246 522.613 427.521 522.661 427.956 522.661L430.277 522.661C430.945 522.661 431.279 522.365 431.279 521.774 431.279 521.076 431.083 520.512 430.692 520.083 430.301 519.654 429.795 519.439 429.174 519.439ZM453.15 514.503C453.793 514.503 454.241 514.669 454.495 515 454.749 515.331 454.949 516.155 455.095 517.471 455.14 517.867 455.216 518.065 455.323 518.065 455.455 518.065 455.59 517.966 455.727 517.767 457.096 515.606 458.853 514.526 460.999 514.526 462.528 514.526 463.833 515.168 464.915 516.452 465.296 516.66 465.636 517.142 465.936 517.9 466.236 518.658 466.386 519.382 466.386 520.073 466.386 520.851 466.203 521.652 465.836 522.476 465.47 523.301 464.993 523.981 464.407 524.517 463.346 525.528 462.034 526.034 460.471 526.034 459.608 526.034 458.887 525.883 458.305 525.579 457.724 525.276 456.941 524.552 455.957 523.409 455.811 523.443 455.669 523.46 455.53 523.46 455.352 523.46 455.217 523.63 455.125 523.969 455.034 524.309 454.988 525.239 454.988 526.76 454.988 529.066 455.06 530.581 455.205 531.304 455.304 531.731 455.419 532.004 455.549 532.124 455.679 532.244 456.116 532.412 456.86 532.63 458.278 533.055 458.986 533.895 458.986 535.148 458.986 535.899 458.726 536.548 458.204 537.097 457.683 537.646 457.001 538.008 456.158 538.183 454.665 538.495 452.471 538.65 449.578 538.65 446.807 538.65 444.696 538.405 443.243 537.916 441.777 537.415 441.043 536.523 441.043 535.24 441.043 534.28 441.597 533.421 442.704 532.664 443.046 532.441 443.282 532.236 443.414 532.051 443.546 531.865 443.641 531.573 443.7 531.173 443.936 529.832 444.054 527.304 444.054 523.589 444.054 522.98 443.999 522.568 443.889 522.354 443.78 522.141 443.549 521.963 443.198 521.823 441.915 521.317 441.273 520.55 441.273 519.522 441.273 518.625 441.693 517.882 442.531 517.292 443.369 516.701 444.691 516.139 446.497 515.605 448.887 514.891 451.105 514.524 453.15 514.503ZM318.102 514.503C320.136 514.503 321.954 515.148 323.558 516.439 324.466 517 325.124 517.798 325.532 518.833 325.939 519.869 326.19 521.344 326.283 523.258L326.605 531.344C326.633 531.908 326.716 532.315 326.855 532.566 326.993 532.816 327.434 533.335 328.176 534.121 328.498 534.464 328.66 534.914 328.66 535.47 328.66 536.704 327.987 537.543 326.641 537.986 325.296 538.429 323.039 538.65 319.872 538.65 317.693 538.65 316.138 538.454 315.207 538.062 314.113 537.598 313.566 536.834 313.566 535.768 313.566 535.366 313.626 535.069 313.747 534.877 313.868 534.686 314.194 534.301 314.727 533.722 315.27 533.151 315.542 531.106 315.542 527.588 315.542 525.55 315.411 524.143 315.15 523.369 314.636 522.557 313.942 522.151 313.07 522.151 312.237 522.151 311.663 522.422 311.347 522.966 311.031 523.509 310.873 524.606 310.873 526.255L310.873 530.805C310.873 531.671 310.922 532.248 311.02 532.535 311.118 532.822 311.472 533.423 312.082 534.338 312.318 534.724 312.436 535.132 312.436 535.562 312.436 536.686 311.74 537.486 310.35 537.961 308.959 538.436 306.901 538.673 304.176 538.673 299.605 538.673 297.319 537.636 297.319 535.562 297.319 535.097 297.405 534.739 297.575 534.488 297.746 534.237 298.1 533.919 298.636 533.533 298.946 533.307 299.145 533.037 299.235 532.725 299.324 532.413 299.413 531.543 299.502 530.116 299.61 528.369 299.663 526.545 299.663 524.646 299.663 523.671 299.6 523.053 299.473 522.792 299.345 522.532 298.865 522.076 298.031 521.425 297.373 521.148 297.043 520.621 297.043 519.843 297.043 519.074 297.354 518.463 297.975 518.01 298.597 517.558 299.76 517.027 301.464 516.417 302.919 515.902 304.352 515.458 305.763 515.085 307.175 514.712 308.147 514.526 308.681 514.526 309.28 514.526 309.784 514.745 310.192 515.183 310.6 515.621 310.804 516.125 310.804 516.695 310.804 516.644 310.793 516.862 310.77 517.351 310.762 517.417 310.758 517.498 310.758 517.592 310.758 518.014 310.9 518.226 311.185 518.226 311.388 518.226 311.718 517.935 312.176 517.352 313.45 515.453 315.426 514.503 318.102 514.503ZM429.404 514.365C432.43 514.365 435.006 515.229 437.134 516.957 438.211 517.825 439.077 518.849 439.731 520.03 440.497 521.4 440.88 522.731 440.88 524.026 440.88 525.106 440.636 526.021 440.149 526.771 439.661 527.521 438.998 527.896 438.159 527.896L427.359 527.896C427.212 527.896 427.139 527.946 427.139 528.047 427.139 528.904 427.625 529.73 428.599 530.524 429.573 531.318 430.622 531.715 431.748 531.715 432.432 531.715 433.199 531.581 434.048 531.312 434.897 531.043 435.594 530.717 436.138 530.332 436.745 529.906 437.25 529.693 437.654 529.693 438.213 529.693 438.726 529.991 439.192 530.589 439.659 531.186 439.892 531.794 439.892 532.414 439.892 533.671 439.136 534.863 437.624 535.989 435.11 537.87 432.201 538.811 428.898 538.811 425.561 538.811 422.762 537.84 420.502 535.898 419.4 534.94 418.49 533.783 417.772 532.426 416.834 530.63 416.365 528.733 416.365 526.737 416.365 524.062 417.178 521.656 418.804 519.519 420.207 517.67 421.987 516.295 424.142 515.394 425.774 514.708 427.528 514.365 429.404 514.365ZM370.024 514.365C372.849 514.365 375.344 515.074 377.509 516.491 379.634 517.891 380.696 519.637 380.696 521.728 380.696 523.193 380.237 524.19 379.318 524.718 378.266 525.979 377.068 526.609 375.723 526.609 374.285 526.609 373.198 526.083 372.462 525.032 372.24 524.707 371.93 523.922 371.531 522.679 371.186 521.607 370.546 521.071 369.611 521.071 368.933 521.071 368.347 521.386 367.855 522.017 367.362 522.648 367.115 523.448 367.115 524.417 367.115 526.145 367.728 527.671 368.953 528.996 369.93 530.043 371.16 530.566 372.644 530.566 373.371 530.566 373.981 530.504 374.475 530.381 374.969 530.257 375.571 530.028 376.281 529.692 376.648 529.509 376.998 529.417 377.332 529.417 378.009 529.417 378.589 529.715 379.074 530.311 379.558 530.907 379.8 531.585 379.8 532.344 379.8 533.135 379.493 533.942 378.878 534.764 378.263 535.587 377.465 536.301 376.483 536.907 374.42 538.176 371.983 538.811 369.174 538.811 365.9 538.811 363.112 537.858 360.808 535.951 357.846 533.53 356.365 530.444 356.365 526.692 356.365 523.087 357.744 520.104 360.502 517.745 363.12 515.492 366.295 514.365 370.024 514.365ZM343.047 514.342C345.815 514.342 348.17 515.048 350.111 516.46 351.167 517.235 351.906 518.124 352.328 519.125 352.75 520.127 352.961 521.306 352.961 522.661L352.915 526.085C352.915 528.715 353.039 530.288 353.285 530.804 353.473 531.179 353.605 531.389 353.684 531.436 353.762 531.483 354.016 531.54 354.446 531.607 355.218 531.728 355.604 532.204 355.604 533.034 355.604 533.87 355.285 534.719 354.646 535.581 354.007 536.444 353.269 537.098 352.433 537.542 351.053 538.388 349.686 538.811 348.332 538.811 346.576 538.811 345.175 538.194 344.129 536.96 343.913 536.693 343.744 536.559 343.622 536.559 343.433 536.559 343.191 536.669 342.896 536.888 341.145 538.17 339.243 538.811 337.188 538.811 335.077 538.811 333.363 538.355 332.045 537.443 331.171 536.834 330.48 536.039 329.969 535.06 329.459 534.081 329.204 533.054 329.204 531.977 329.204 530.247 329.894 528.725 331.274 527.411 333.372 525.394 336.483 524.377 340.608 524.361 341.397 524.361 341.854 524.314 341.979 524.219 342.103 524.123 342.165 523.829 342.165 523.336 342.165 521.792 342.023 520.714 341.74 520.103 341.457 519.492 341.035 519.186 340.474 519.186 340.126 519.186 339.804 519.3 339.509 519.526 339.213 519.752 338.828 520.191 338.354 520.841 336.862 522.97 335.286 524.035 333.625 524.035 332.749 524.035 332.026 523.769 331.458 523.238 330.89 522.706 330.606 522.011 330.606 521.153 330.606 520.308 330.928 519.484 331.572 518.681 332.215 517.879 332.989 517.234 333.892 516.748 336.905 515.144 339.957 514.342 343.047 514.342ZM393.967 505.886C395.169 505.886 395.751 506.432 395.715 507.526L395.509 514.688C395.499 515.17 395.493 516.222 395.493 517.844 395.493 519.373 395.514 520.26 395.555 520.505 395.617 520.87 395.777 521.052 396.035 521.052 396.408 521.052 397.012 520.792 397.85 520.272 398.687 519.753 399.106 519.433 399.106 519.315 399.106 519.253 398.969 519.042 398.695 518.681 398.387 518.276 398.232 517.875 398.232 517.477 398.232 515.51 400.426 514.526 404.814 514.526 406.98 514.526 408.702 514.75 409.981 515.199 410.569 515.402 411.056 515.75 411.44 516.244 411.824 516.738 412.016 517.271 412.016 517.844 412.016 518.741 411.587 519.369 410.728 519.728 410.574 519.796 410.094 519.904 409.287 520.052 408.692 520.16 407.906 520.538 406.931 521.187 405.955 521.835 405.467 522.237 405.467 522.394 405.467 522.521 406.088 523.448 407.33 525.175 408.573 526.903 409.644 528.393 410.545 529.647 411.5 530.625 412.167 531.278 412.545 531.606 412.923 531.935 413.456 532.289 414.145 532.67 415.422 533.362 416.061 534.18 416.061 535.125 416.061 536.103 415.656 536.858 414.848 537.391 414.039 537.924 412.977 538.191 411.662 538.191L404.202 538.191C403.116 538.173 402.269 537.769 401.66 536.981L397.845 532.086C396.825 530.787 396.233 530.048 396.069 529.867 395.905 529.686 395.817 529.596 395.806 529.596 395.886 529.596 395.911 529.661 395.882 529.792 395.853 529.922 395.838 530.359 395.838 531.104 395.838 531.73 395.899 532.168 396.022 532.419 396.144 532.669 396.45 532.992 396.941 533.387 397.462 533.808 397.723 534.403 397.723 535.171 397.723 536.45 397.093 537.354 395.833 537.882 394.574 538.409 392.604 538.673 389.923 538.673 386.806 538.673 384.7 538.518 383.605 538.208 383.127 538.067 382.672 537.723 382.241 537.176 381.81 536.628 381.595 536.036 381.595 535.401 381.595 534.651 381.93 534.053 382.599 533.607 383.223 533.209 383.592 532.941 383.707 532.803 383.821 532.665 383.914 532.446 383.985 532.144 384.337 529.994 384.506 526.705 384.491 522.279L384.491 517.247C384.491 515.591 384.424 514.582 384.29 514.221 384.156 513.861 383.836 513.647 383.331 513.579 381.806 513.375 381.043 512.697 381.043 511.548 381.043 510.822 381.358 510.193 381.987 509.66 382.616 509.127 383.481 508.691 384.582 508.352 388.849 506.708 391.978 505.886 393.967 505.886Z" stroke="#FF5964" stroke-linejoin="round" stroke-miterlimit="10" fill="#37392E" fill-rule="evenodd"/><text fill="#000000" fill-opacity="0" font-family="Arial,Arial_MSFontService,sans-serif" font-size="32.9253" x="297.043" y="534.695">nacker</text><path d="M483.359 511.396C482.911 511.396 482.607 511.487 482.446 511.668 482.285 511.849 482.19 512.274 482.161 512.944L481.917 518.181C481.919 518.217 481.921 518.281 481.921 518.373 481.921 518.813 481.957 519.075 482.03 519.158 482.103 519.241 482.308 519.283 482.646 519.283 483.85 519.283 484.716 518.982 485.245 518.38 485.774 517.779 486.038 516.773 486.038 515.362 486.038 512.718 485.145 511.396 483.359 511.396ZM487.058 505.495C490.44 505.495 493.316 506.596 495.685 508.8 497.616 509.761 498.581 511.581 498.581 514.259 498.581 515.751 498.221 517.114 497.502 518.347 496.783 519.581 495.786 520.513 494.512 521.142 494.207 521.294 494.054 521.444 494.054 521.59 494.054 521.82 494.429 522.097 495.18 522.419 496.676 522.915 497.824 523.791 498.625 525.049 499.425 526.307 499.99 528.183 500.32 530.677 500.445 531.596 500.608 532.171 500.809 532.401 501.01 532.632 501.595 532.888 502.563 533.169 502.855 533.262 503.13 533.501 503.388 533.887 503.645 534.274 503.774 534.694 503.774 535.148 503.774 535.719 503.561 536.284 503.136 536.843 502.71 537.401 502.041 537.85 501.127 538.191 500.04 538.788 498.338 539.087 496.02 539.087 492.88 539.087 490.621 538.242 489.243 536.551 488.632 535.812 488.114 534.881 487.689 533.758 487.264 532.636 486.778 530.948 486.229 528.693 485.896 527.314 485.491 526.364 485.016 525.842 484.541 525.321 483.866 525.04 482.99 525 482.639 525 482.411 525.114 482.307 525.343 482.202 525.571 482.15 526.297 482.15 527.519 482.15 529.441 482.261 530.897 482.484 531.885 482.555 532.169 482.647 532.373 482.76 532.497 482.872 532.62 483.064 532.766 483.336 532.933 484.522 533.573 485.115 534.396 485.115 535.401 485.115 536.636 484.407 537.486 482.993 537.952 481.579 538.417 479.318 538.65 476.212 538.65 470.231 538.65 467.241 537.422 467.241 534.964 467.241 534.495 467.35 534.116 467.569 533.827 467.788 533.538 468.214 533.183 468.848 532.761 469.441 532.369 469.843 531.905 470.054 531.367 470.265 530.829 470.416 529.828 470.507 528.365 470.581 527.305 470.619 523.431 470.619 516.741 470.619 514.665 470.523 513.286 470.332 512.604 470.141 511.922 469.704 511.411 469.021 511.069 468.394 510.77 467.937 510.452 467.649 510.117 467.361 509.781 467.218 509.339 467.218 508.79 467.218 508.089 467.474 507.49 467.986 506.996 468.499 506.501 469.187 506.144 470.051 505.923 470.748 505.745 471.691 505.656 472.88 505.656 473.342 505.656 474.617 505.735 476.706 505.893 477.029 505.919 477.623 505.932 478.487 505.932 479.897 505.932 481.684 505.845 483.848 505.672 485.449 505.554 486.519 505.495 487.058 505.495Z" stroke="#FF5964" stroke-width="2" stroke-linejoin="round" stroke-miterlimit="10" fill="#FFE74C" fill-rule="evenodd"/><text fill="#000000" fill-opacity="0" font-family="Arial,Arial_MSFontService,sans-serif" font-size="33.5918" x="467.218" y="534.888">R</text><path d="M517.018 528.585C516.508 528.585 516.049 528.811 515.641 529.263 515.232 529.715 515.028 530.267 515.028 530.92 515.028 531.557 515.163 532.048 515.432 532.393 515.7 532.737 516.045 532.91 516.467 532.91 517.38 532.91 517.836 532.032 517.836 530.276 517.836 529.527 517.78 529.06 517.669 528.876 517.558 528.692 517.341 528.595 517.018 528.585ZM552.635 514.503C554.669 514.503 556.488 515.148 558.091 516.439 558.999 517 559.657 517.798 560.065 518.833 560.473 519.869 560.723 521.344 560.817 523.258L561.138 531.344C561.166 531.908 561.249 532.315 561.388 532.566 561.527 532.816 561.967 533.335 562.709 534.121 563.032 534.464 563.193 534.914 563.193 535.47 563.193 536.704 562.52 537.543 561.175 537.986 559.829 538.429 557.573 538.65 554.405 538.65 552.226 538.65 550.672 538.454 549.741 538.062 548.646 537.598 548.099 536.834 548.099 535.768 548.099 535.366 548.16 535.069 548.28 534.877 548.401 534.686 548.728 534.301 549.26 533.722 549.804 533.151 550.076 531.106 550.076 527.588 550.076 525.55 549.945 524.143 549.683 523.369 549.169 522.557 548.476 522.151 547.603 522.151 546.771 522.151 546.196 522.422 545.88 522.966 545.564 523.509 545.406 524.606 545.406 526.255L545.406 530.805C545.406 531.671 545.455 532.248 545.553 532.535 545.651 532.822 546.005 533.423 546.615 534.338 546.851 534.724 546.969 535.132 546.969 535.562 546.969 536.686 546.274 537.486 544.883 537.961 543.492 538.436 541.435 538.673 538.71 538.673 534.138 538.673 531.853 537.636 531.853 535.562 531.853 535.097 531.938 534.739 532.109 534.488 532.279 534.237 532.633 533.919 533.169 533.533 533.479 533.307 533.679 533.037 533.768 532.725 533.857 532.413 533.946 531.543 534.036 530.116 534.143 528.369 534.197 526.545 534.197 524.646 534.197 523.671 534.133 523.053 534.006 522.792 533.879 522.532 533.398 522.076 532.565 521.425 531.906 521.148 531.577 520.621 531.577 519.843 531.577 519.074 531.887 518.463 532.509 518.01 533.13 517.558 534.293 517.027 535.998 516.417 537.452 515.902 538.885 515.458 540.297 515.085 541.708 514.712 542.68 514.526 543.214 514.526 543.814 514.526 544.318 514.745 544.726 515.183 545.134 515.621 545.338 516.125 545.338 516.695 545.338 516.644 545.326 516.862 545.304 517.351 545.296 517.417 545.291 517.498 545.291 517.592 545.291 518.014 545.434 518.226 545.718 518.226 545.921 518.226 546.251 517.935 546.709 517.352 547.983 515.453 549.959 514.503 552.635 514.503ZM518.581 514.342C521.349 514.342 523.703 515.048 525.644 516.46 526.7 517.235 527.439 518.124 527.861 519.125 528.283 520.127 528.494 521.306 528.494 522.661L528.449 526.085C528.449 528.715 528.572 530.288 528.818 530.804 529.006 531.179 529.139 531.389 529.217 531.436 529.295 531.483 529.549 531.54 529.979 531.607 530.751 531.728 531.137 532.204 531.137 533.034 531.137 533.87 530.818 534.719 530.179 535.581 529.54 536.444 528.803 537.098 527.966 537.542 526.586 538.388 525.22 538.811 523.866 538.811 522.109 538.811 520.708 538.194 519.662 536.96 519.447 536.693 519.278 536.559 519.155 536.559 518.966 536.559 518.724 536.669 518.429 536.888 516.679 538.17 514.776 538.811 512.721 538.811 510.611 538.811 508.897 538.355 507.578 537.443 506.705 536.834 506.013 536.039 505.503 535.06 504.993 534.081 504.738 533.054 504.738 531.977 504.738 530.247 505.427 528.725 506.807 527.411 508.905 525.394 512.016 524.377 516.141 524.361 516.931 524.361 517.388 524.314 517.512 524.219 517.636 524.123 517.698 523.829 517.698 523.336 517.698 521.792 517.557 520.714 517.274 520.103 516.991 519.492 516.568 519.186 516.007 519.186 515.659 519.186 515.338 519.3 515.042 519.526 514.747 519.752 514.362 520.191 513.888 520.841 512.396 522.97 510.819 524.035 509.159 524.035 508.282 524.035 507.56 523.769 506.992 523.238 506.423 522.706 506.139 522.011 506.139 521.153 506.139 520.308 506.461 519.484 507.105 518.681 507.749 517.879 508.522 517.234 509.425 516.748 512.438 515.144 515.49 514.342 518.581 514.342ZM576.501 505.886C577.702 505.886 578.284 506.432 578.248 507.526L578.042 514.688C578.032 515.17 578.027 516.222 578.027 517.844 578.027 519.373 578.047 520.26 578.088 520.505 578.151 520.87 578.311 521.052 578.569 521.052 578.941 521.052 579.546 520.792 580.383 520.272 581.22 519.753 581.639 519.433 581.639 519.315 581.639 519.253 581.502 519.042 581.229 518.681 580.92 518.276 580.766 517.875 580.766 517.477 580.766 515.51 582.959 514.526 587.347 514.526 589.513 514.526 591.235 514.75 592.514 515.199 593.103 515.402 593.589 515.75 593.973 516.244 594.357 516.738 594.549 517.271 594.549 517.844 594.549 518.741 594.12 519.369 593.261 519.728 593.108 519.796 592.628 519.904 591.821 520.052 591.225 520.16 590.44 520.538 589.464 521.187 588.488 521.835 588 522.237 588 522.394 588 522.521 588.621 523.448 589.864 525.175 591.106 526.903 592.178 528.393 593.078 529.647 594.033 530.625 594.7 531.278 595.078 531.606 595.456 531.935 595.989 532.289 596.678 532.67 597.955 533.362 598.594 534.18 598.594 535.125 598.594 536.103 598.19 536.858 597.381 537.391 596.573 537.924 595.511 538.191 594.195 538.191L586.735 538.191C585.65 538.173 584.802 537.769 584.193 536.981L580.378 532.086C579.358 530.787 578.766 530.048 578.602 529.867 578.438 529.686 578.351 529.596 578.339 529.596 578.419 529.596 578.444 529.661 578.415 529.792 578.386 529.922 578.372 530.359 578.372 531.104 578.372 531.73 578.433 532.168 578.555 532.419 578.677 532.669 578.984 532.992 579.474 533.387 579.995 533.808 580.256 534.403 580.256 535.171 580.256 536.45 579.626 537.354 578.367 537.882 577.107 538.409 575.137 538.673 572.456 538.673 569.339 538.673 567.233 538.518 566.138 538.208 565.66 538.067 565.206 537.723 564.775 537.176 564.344 536.628 564.128 536.036 564.128 535.401 564.128 534.651 564.463 534.053 565.132 533.607 565.756 533.209 566.125 532.941 566.24 532.803 566.355 532.665 566.447 532.446 566.518 532.144 566.87 529.994 567.039 526.705 567.024 522.279L567.024 517.247C567.024 515.591 566.957 514.582 566.823 514.221 566.689 513.861 566.37 513.647 565.864 513.579 564.339 513.375 563.577 512.697 563.577 511.548 563.577 510.822 563.891 510.193 564.52 509.66 565.149 509.127 566.014 508.691 567.116 508.352 571.383 506.708 574.511 505.886 576.501 505.886Z" stroke="#FF5964" stroke-linejoin="round" stroke-miterlimit="10" fill="#37392E" fill-rule="evenodd"/><text fill="#000000" fill-opacity="0" font-family="Arial,Arial_MSFontService,sans-serif" font-size="32.9253" x="504.738" y="534.695">ank</text></g></svg>